<svg xmlns="http://www.w3.org/2000/svg" xmlns:xlink="http://www.w3.org/1999/xlink" version="1.1" id="Layer_1" x="0px" y="0px" width="100%" viewBox="0 0 1251 250" enable-background="new 0 0 1251 250" xml:space="preserve">
<path opacity="1.000000" stroke="none" d=" M1185.000000,251.000000   C791.500000,251.000000 398.500000,250.993759 5.500023,251.092987   C1.750931,251.093933 0.898823,250.249908 0.904670,246.499847   C1.030177,166.000046 1.027874,85.499954 0.903941,5.000148   C0.898669,1.575783 1.576633,0.905334 5.000022,0.906155   C419.333344,1.005469 833.666687,1.005469 1248.000000,0.906155   C1251.423340,0.905334 1252.101440,1.575785 1252.096191,5.000147   C1251.972290,85.666618 1251.972168,166.333374 1252.096069,246.999847   C1252.101318,250.424210 1251.429321,251.135345 1247.999023,251.101746   C1227.167603,250.897705 1206.333374,251.000000 1185.000000,251.000000  z" style="     fill: none; "/>
<path fill="#FD7015" opacity="1.000000" stroke="none" d=" M55.000000,162.048462   C113.969124,162.048264 172.438370,162.094681 230.907120,161.949173   C235.074142,161.938797 236.127426,163.001114 236.091003,167.138184   C236.045776,172.275970 234.458557,176.642273 231.553680,180.564407   C217.225494,199.910080 199.667374,215.812180 179.504181,228.886398   C175.768143,231.308914 171.689346,232.156876 167.188950,232.132370   C143.035751,232.000748 118.880432,231.951019 94.728317,232.159515   C89.143044,232.207703 84.212440,230.981155 79.674309,227.915359   C60.910290,215.238953 44.331001,200.196106 30.468645,182.242767   C26.712608,177.378281 24.407614,172.063461 24.896622,165.635605   C25.103226,162.919846 25.621128,161.922394 28.515173,161.983383   C37.173389,162.165863 45.837929,162.048645 55.000000,162.048462  z"/>
<path fill="#131313" opacity="1.000000" stroke="none" d=" M1110.749268,104.547287   C1107.611572,100.530991 1103.439575,100.215645 1099.237305,100.193489   C1088.414795,100.136436 1077.591553,100.178764 1066.768677,100.170288   C1059.367310,100.164490 1058.969727,99.746292 1058.959839,92.118073   C1058.958374,90.952530 1059.000854,89.785271 1058.952148,88.621758   C1058.789185,84.727325 1060.433960,82.754967 1064.532349,82.798294   C1077.684204,82.937340 1090.850586,82.607323 1103.986816,83.103790   C1122.296143,83.795784 1133.434082,99.087807 1128.912231,116.527351   C1127.928589,120.320854 1123.643433,123.631111 1124.146729,126.428726   C1124.675171,129.365768 1129.261353,131.601227 1131.082153,135.095123   C1138.825195,149.953400 1131.478271,166.793137 1115.389771,171.028336   C1110.529419,172.307785 1105.637573,173.038300 1100.606201,173.017960   C1088.784546,172.970184 1076.961060,172.899490 1065.141235,173.055283   C1060.600464,173.115128 1058.943726,171.182800 1058.906372,166.775131   C1058.813843,155.826813 1058.702881,155.827728 1069.862549,155.827713   C1080.019409,155.827698 1090.176636,155.878357 1100.332886,155.793259   C1102.979736,155.771072 1105.667114,155.546677 1108.259033,155.029266   C1113.817993,153.919495 1116.187744,151.208481 1116.193359,146.427307   C1116.198853,141.754364 1113.194824,138.023224 1108.200684,137.041809   C1105.282104,136.468277 1102.257202,136.234955 1099.277222,136.210541   C1087.955566,136.117752 1076.630493,136.044678 1065.311157,136.232574   C1060.536987,136.311844 1058.531982,134.381378 1058.941650,129.696381   C1059.057373,128.374451 1059.040283,127.027985 1058.944702,125.702820   C1058.607300,121.026466 1060.710205,119.046432 1065.414917,119.115028   C1075.569702,119.263062 1085.728027,119.166672 1095.884888,119.155319   C1097.715332,119.153275 1099.549927,119.144913 1101.375488,119.027817   C1110.345825,118.452431 1113.708130,113.465782 1110.749268,104.547287  z"/>
<path fill="#141414" opacity="1.000000" stroke="none" d=" M1038.053223,164.030518   C1023.266663,176.263702 1006.785767,175.838196 990.047791,171.098221   C977.994751,167.684921 971.542847,158.855728 969.716431,146.491669   C969.094421,142.280487 970.798157,140.543091 974.783752,140.496887   C976.949829,140.471771 979.122681,140.592209 981.281250,140.461578   C985.077332,140.231842 987.250610,141.776657 987.789734,145.662750   C988.523132,150.949921 992.131592,153.761993 996.848755,155.201385   C1004.160095,157.432343 1011.606567,157.590927 1019.050903,155.807739   C1021.163025,155.301804 1023.145325,154.398651 1024.740967,152.845398   C1028.345581,149.336380 1027.895752,144.611832 1023.584351,142.058121   C1018.221191,138.881424 1012.173950,137.550812 1006.219055,136.057480   C999.606750,134.399292 992.913330,132.955536 986.727112,130.030045   C979.038452,126.394096 972.871643,121.289421 972.043274,112.030838   C971.150146,102.048477 974.935364,94.256950 983.146606,88.455978   C993.553467,81.103821 1023.010925,79.200996 1035.773315,93.398293   C1039.990845,98.090118 1041.906372,103.561409 1042.554932,109.634010   C1042.638062,110.413284 1042.544800,111.467102 1042.082275,112.008339   C1038.499268,116.201035 1033.671997,113.511650 1029.429199,114.085258   C1027.033691,114.409119 1025.294312,113.149544 1024.872070,110.517731   C1024.017090,105.188210 1020.299683,102.557167 1015.566589,101.222572   C1008.530884,99.238708 1001.495605,99.023300 994.561584,101.931282   C991.292542,103.302292 989.414795,105.653831 989.331360,109.121605   C989.252563,112.397400 992.067444,113.459625 994.427002,114.569489   C1002.473206,118.354095 1011.424011,119.091095 1019.754700,121.933128   C1023.048035,123.056633 1026.430542,124.040123 1029.539307,125.563179   C1046.135132,133.694000 1049.611206,149.035248 1038.053223,164.030518  z"/>
<path fill="#141414" opacity="1.000000" stroke="none" d=" M546.695679,139.578003   C550.016418,155.385925 543.845581,166.632614 528.792114,171.231522   C513.975891,175.757965 499.196808,175.621765 485.449371,167.388596   C477.442749,162.593552 473.885803,154.851608 472.760559,145.825668   C472.345367,142.495163 473.773224,140.713593 477.091644,140.545197   C479.252106,140.435608 481.432465,140.633331 483.584259,140.455704   C487.975281,140.093246 490.408752,141.702362 491.048035,146.348755   C491.679382,150.937332 495.086761,153.619095 499.198517,154.945328   C507.124237,157.501740 515.218140,157.856125 523.265381,155.374512   C524.810974,154.897873 526.376709,154.075134 527.593994,153.020538   C531.563599,149.581543 531.077454,144.609512 526.530151,141.966034   C521.148865,138.837708 515.109619,137.514420 509.154205,136.022095   C502.546234,134.366241 495.909576,132.800842 489.663208,130.004868   C468.615906,120.583748 472.886993,98.345612 485.122437,89.150032   C495.713654,81.190224 526.100525,79.027695 538.996094,93.503571   C543.199890,98.222496 544.967529,103.739670 545.726318,109.766075   C545.804565,110.387337 545.720764,111.185829 545.384338,111.678055   C542.219421,116.308784 537.445374,113.483528 533.421692,114.114288   C530.970825,114.498489 528.540955,113.797836 528.069214,110.891716   C527.044922,104.581558 522.628845,102.138939 517.124268,100.842422   C510.859161,99.366760 504.647552,99.236588 498.509918,101.595459   C495.144836,102.888756 492.745544,104.879486 492.501923,108.730110   C492.252289,112.675987 495.489868,113.677849 498.098053,114.826141   C506.967499,118.731003 516.726440,119.641571 525.841309,122.795456   C530.585449,124.436974 535.088257,126.424812 539.147339,129.418747   C542.600464,131.965775 545.094543,135.173660 546.695679,139.578003  z"/>
<path fill="#141414" opacity="1.000000" stroke="none" d=" M392.385071,136.363586   C399.408630,119.824448 406.311890,103.647141 413.034515,87.395103   C414.463165,83.941238 416.606934,82.691666 420.275604,82.767624   C434.807556,83.068459 431.378204,81.108574 436.768036,93.596756   C446.827271,116.903961 456.578918,140.343933 466.456482,163.729523   C469.067108,169.910278 467.740021,172.083496 461.097870,171.974854   C449.425049,171.783920 451.728058,174.164810 446.790344,162.608688   C444.836578,158.036179 443.905487,151.996033 440.432831,149.382904   C436.697235,146.571945 430.471863,148.529602 425.343872,148.572144   C419.047638,148.624359 411.385834,146.112259 406.839172,149.512482   C402.576599,152.700256 401.571014,160.231796 399.106354,165.840500   C398.127472,168.068130 397.839081,171.410294 395.121185,171.710571   C390.574768,172.212906 385.738647,173.061646 381.373077,171.184128   C378.395599,169.903580 379.381866,167.049728 380.385101,164.668350   C384.314331,155.341309 388.260468,146.021347 392.385071,136.363586  z" style="&#10;    /* z-index: -20; */&#10;"/>
<path fill="#131313" opacity="1.000000" stroke="none" d=" M872.671936,171.986465   C869.650391,171.488190 869.088745,169.194962 868.254944,167.281754   C865.999512,162.106689 863.808655,156.899597 861.761841,151.639175   C860.852722,149.302765 859.534973,148.405075 856.948669,148.450333   C847.786194,148.610703 838.616272,148.642441 829.455627,148.437225   C826.556824,148.372299 825.351196,149.541824 824.402710,152.028152   C822.331848,157.456573 819.957275,162.768311 817.792725,168.162186   C816.662781,170.977600 814.886719,172.391983 811.692139,172.052063   C809.385193,171.806610 807.030457,172.043076 804.698425,171.995560   C799.341003,171.886398 797.874878,169.698715 799.985046,164.665833   C806.726746,148.586914 813.534607,132.535736 820.336792,116.482277   C824.482361,106.698570 828.769531,96.973045 832.767761,87.129852   C834.021667,84.042793 835.824951,82.728165 839.124695,82.791939   C854.210693,83.083458 850.836487,80.883385 856.421265,93.927155   C866.224121,116.822899 875.872925,139.784622 885.593811,162.715485   C888.736694,170.129288 887.542542,171.993607 879.601257,172.003128   C877.434937,172.005722 875.268555,172.002335 872.671936,171.986465  z"/>
<path fill="#131313" opacity="1.000000" stroke="none" d=" M1222.462891,153.407410   C1213.805176,167.249161 1201.204956,172.934937 1185.662598,172.995331   C1175.505859,173.034790 1165.346924,172.887970 1155.192871,173.055420   C1150.693359,173.129593 1148.674805,171.287964 1148.945312,166.833527   C1149.005859,165.838196 1148.952026,164.835999 1148.952637,163.836960   C1148.958008,156.244370 1149.351196,155.835953 1156.798950,155.829544   C1166.622803,155.821075 1176.450073,155.988724 1186.269653,155.783401   C1199.362305,155.509644 1209.107544,146.872650 1210.996582,134.226990   C1213.349121,118.477737 1206.866211,105.424194 1194.722534,101.516197   C1191.364258,100.435432 1187.888672,100.161530 1184.376709,100.167145   C1174.552856,100.182854 1164.727661,100.077972 1154.905762,100.217628   C1150.638306,100.278313 1148.980713,98.467499 1148.899902,94.261589   C1148.680176,82.825912 1148.580933,82.828270 1159.870483,82.827652   C1167.696289,82.827225 1175.533203,83.099136 1183.345947,82.778206   C1223.912354,81.111816 1238.739380,122.922264 1223.663208,151.377914   C1223.351929,151.965256 1223.007812,152.535248 1222.462891,153.407410  z"/>
<path fill="#151515" opacity="1.000000" stroke="none" d=" M629.979919,85.471268   C635.372009,80.749695 646.438293,82.009285 650.231262,87.430855   C657.288330,97.517899 664.323486,107.620338 671.384827,117.704361   C671.557861,117.951515 671.932373,118.057556 672.539429,118.429382   C679.630981,108.276505 686.730469,98.108345 693.834412,87.943306   C696.987244,83.431900 707.724487,80.634003 712.466492,83.347298   C716.001648,85.370010 715.136597,88.157928 713.179871,90.963974   C706.231873,100.927528 699.959473,111.442619 692.252747,120.775719   C683.256104,131.670929 678.926025,143.377838 681.036133,157.387726   C681.208008,158.528366 681.059509,159.717300 681.059509,160.883804   C681.059631,172.204605 681.059326,172.059204 669.763550,172.077271   C665.216919,172.084549 663.385193,170.162476 663.410095,165.831573   C663.456116,157.833008 663.312378,149.831696 663.476685,141.836243   C663.541382,138.685425 662.756897,136.109909 660.925903,133.517975   C651.230164,119.793037 641.686951,105.960327 632.098206,92.159904   C630.778198,90.260239 629.150452,88.454498 629.979919,85.471268  z"/>
<path fill="#141414" opacity="1.000000" stroke="none" d=" M557.539917,82.929749   C579.134216,82.858093 600.275085,82.932007 621.413818,82.752991   C626.206360,82.712395 628.159058,84.636421 627.919861,89.242867   C627.842224,90.737015 627.866638,92.239799 627.913818,93.736435   C628.049011,98.024818 626.322571,100.261734 621.705505,100.051270   C617.054321,99.839256 612.385864,100.004608 607.724976,100.004707   C599.835754,100.004875 599.834290,100.004906 599.833740,108.144066   C599.832520,126.787651 599.840637,145.431244 599.828674,164.074829   C599.824097,171.143768 598.928955,171.999847 591.729492,172.004959   C590.730713,172.005661 589.731934,172.013397 588.733215,172.003281   C583.191956,171.947159 582.073792,170.878281 582.065552,165.238571   C582.035950,144.930420 581.966980,124.621452 582.137939,104.314697   C582.166870,100.884621 581.423279,99.720955 577.831909,99.916191   C571.856995,100.240997 565.848694,99.891396 559.859985,100.042946   C555.567932,100.151558 553.479614,98.187775 554.003357,94.043800   C554.483215,90.246681 551.771484,85.452766 557.539917,82.929749  z"/>
<path fill="#141414" opacity="1.000000" stroke="none" d=" M926.000122,82.822235   C936.983826,82.823990 947.469055,82.930099 957.950439,82.775009   C962.037048,82.714539 963.739807,84.562698 963.801331,88.399803   C963.814697,89.231644 963.804504,90.063843 963.806274,90.895882   C963.824707,99.607544 963.438538,100.004074 954.926880,100.005005   C949.768250,100.005569 944.598389,100.210388 939.455078,99.930008   C936.305969,99.758339 935.613770,100.787437 935.634338,103.809502   C935.770569,123.777542 935.710510,143.746964 935.694641,163.715942   C935.692322,166.672516 936.385559,170.554413 932.847839,171.472000   C928.627563,172.566589 923.919800,173.028091 919.744324,170.974457   C917.536316,169.888489 917.993042,167.242538 917.993225,165.085068   C917.994507,144.949677 917.860962,124.812691 918.104004,104.680244   C918.153259,100.597511 916.882385,99.738091 913.147095,99.924904   C907.171326,100.223778 901.169250,99.957756 895.179199,100.022018   C891.680176,100.059563 889.879639,98.455017 889.860168,94.956833   C889.791748,82.638298 888.991272,82.621841 901.038513,82.801598   C909.190674,82.923241 917.346069,82.823105 926.000122,82.822235  z"/>
<path fill="#141414" opacity="1.000000" stroke="none" d=" M330.170898,153.997101   C330.170502,132.510712 330.160980,111.523651 330.174683,90.536606   C330.179199,83.610748 330.974060,82.834694 337.931793,82.827515   C348.925018,82.816162 359.919525,82.922310 370.910828,82.776375   C375.159668,82.719963 376.896729,84.480713 377.027313,88.671509   C377.387421,100.231796 377.199829,100.516228 365.806702,100.516289   C361.476044,100.516312 357.126617,100.765533 352.820404,100.441078   C349.073608,100.158760 348.053162,101.350693 348.089752,105.133789   C348.286194,125.452690 348.190247,145.774490 348.177887,166.095291   C348.173645,173.093246 347.424591,173.821426 340.445801,173.841812   C338.946716,173.846207 337.447144,173.815781 335.948669,173.845734   C331.950500,173.925629 330.188232,171.813278 330.176941,167.988052   C330.163635,163.490891 330.171967,158.993652 330.170898,153.997101  z"/>
<path fill="#FD7319" opacity="1.000000" stroke="none" d=" M34.482010,135.500244   C33.039139,131.029495 31.086359,127.083839 30.920307,122.682022   C30.697281,116.769859 33.326653,111.995522 37.508530,108.160332   C39.935123,105.934898 40.241882,103.689713 39.662212,100.656433   C35.444698,78.587189 31.837400,56.426479 30.683479,33.944523   C30.538979,31.129206 30.641710,28.289358 30.825914,25.473701   C30.927216,23.925224 30.541571,21.582945 32.639404,21.378485   C34.544266,21.192833 35.040840,23.501411 35.600601,24.949253   C38.608231,32.728622 40.329617,40.875542 41.977905,49.016018   C45.376606,65.801323 48.795742,82.587776 51.090027,99.571815   C51.409657,101.937950 52.430729,103.363434 54.610458,104.498756   C63.980198,109.378952 68.549042,116.803902 67.072670,127.738251   C65.984497,135.797607 65.278732,143.906815 63.596012,152.770523   C62.342403,146.016663 61.282482,140.113235 60.130901,134.227753   C59.813366,132.604904 59.320290,130.997894 58.725689,129.453720   C58.261383,128.247910 57.822071,126.451363 56.374432,126.534576   C54.652355,126.633553 55.097160,128.540344 54.889301,129.762802   C53.603451,137.325134 54.299603,144.990646 53.831081,153.525986   C51.267723,145.789444 49.060162,138.898300 46.662720,132.073853   C46.151974,130.619980 45.718216,128.167755 43.921356,128.365646   C41.709011,128.609299 41.985317,131.126984 41.958920,132.844986   C41.864838,138.968491 41.922138,145.094315 41.922138,152.308701   C38.318340,146.602478 36.760300,141.100830 34.482010,135.500244  z"/>
<path fill="#171717" opacity="1.000000" stroke="none" d=" M793.272156,165.749313   C792.974976,172.494354 792.475342,173.003403 786.241516,173.007599   C768.075745,173.019806 749.910034,173.022583 731.744263,173.006500   C725.666260,173.001129 724.890930,172.189117 724.824585,166.039001   C724.819214,165.539078 724.822266,165.039062 724.821533,164.539093   C724.807922,155.709000 725.035950,155.472855 733.709595,155.471512   C750.208740,155.468933 766.707947,155.470642 783.207092,155.470779   C793.280823,155.470871 793.280823,155.471069 793.272156,165.749313  z"/>
<path fill="#111111" opacity="1.000000" stroke="none" d=" M739.024780,82.832298   C754.992920,82.831230 770.465942,82.823227 785.938965,82.833244   C792.586548,82.837555 793.190247,83.431404 793.255676,89.821350   C793.361572,100.166573 793.361572,100.166603 782.838440,100.166595   C765.701660,100.166580 748.564148,100.079018 731.428589,100.225067   C726.873535,100.263893 724.747131,98.844612 724.764893,93.952591   C724.811951,81.020927 724.893372,82.911171 739.024780,82.832298  z"/>
<path fill="#151515" opacity="1.000000" stroke="none" d=" M785.971191,119.759567   C789.448853,124.419411 788.032654,129.285873 787.474609,133.937851   C787.217651,136.079895 784.959595,136.837234 782.775330,136.837021   C765.136780,136.835297 747.498291,136.851517 729.859741,136.819550   C726.683472,136.813797 724.908997,135.186264 724.847778,131.906891   C724.841553,131.574158 724.843384,131.241150 724.831177,130.908661   C724.393066,118.999008 724.398987,118.993019 736.275146,118.993279   C750.918457,118.993607 765.561829,118.981857 780.205139,119.008041   C782.015015,119.011276 783.874329,118.679855 785.971191,119.759567  z"/>
<path fill="#FD761D" opacity="1.000000" stroke="none" d=" M158.517761,151.485657   C156.884735,149.810959 155.239441,148.535110 154.243332,146.870728   C152.551987,144.044724 151.999481,140.882309 153.975159,137.919144   C155.865540,135.083908 158.710968,133.552567 162.089523,134.104752   C165.078171,134.593231 166.728134,134.063400 168.083771,131.035141   C169.729889,127.357979 172.872086,125.103714 177.279739,125.601860   C182.181946,126.155899 185.279022,129.238724 186.350693,133.669708   C187.143753,136.948669 188.579224,137.349335 191.432816,137.105972   C195.392929,136.768234 199.398849,137.342728 201.004089,141.653290   C202.572647,145.865326 199.989258,148.992676 197.101807,151.661194   C195.654541,152.998718 193.895615,154.004333 192.252228,155.122711   C190.748795,156.145889 189.305389,155.836349 188.351059,154.429764   C187.323715,152.915558 188.007599,151.579681 189.398071,150.597824   C191.290329,149.261627 193.417587,148.222855 194.849640,146.308975   C195.441116,145.518478 196.268143,144.689590 195.883041,143.644272   C195.415970,142.376419 194.127579,142.101410 192.976501,142.236618   C190.516388,142.525574 188.045090,142.873230 185.642014,143.458344   C181.890152,144.371826 180.461060,142.936356 181.387985,139.345200   C181.930328,137.244019 181.748077,135.385620 180.686234,133.609024   C178.561295,130.053757 174.978989,130.013107 172.788818,133.517838   C172.271713,134.345306 171.803772,135.311874 171.684219,136.261185   C171.077316,141.080109 169.050156,142.922897 164.457733,140.011429   C163.911530,139.665146 163.230774,139.462463 162.585449,139.354843   C161.019272,139.093658 159.506104,139.455917 158.538361,140.704605   C157.389786,142.186630 158.394073,143.590561 159.299347,144.757156   C160.104416,145.794632 161.114471,146.702850 162.146271,147.527740   C163.804611,148.853516 166.386398,150.010544 164.396744,152.554169   C162.452240,155.040100 160.587769,152.647385 158.517761,151.485657  z"/>
<path fill="#FD761F" opacity="1.000000" stroke="none" d=" M96.569748,151.973434   C97.466324,151.886993 97.966202,151.860046 98.464760,151.875519   C100.657852,151.943573 103.340462,152.137894 104.066200,149.741257   C104.915298,146.937195 102.264145,145.557068 100.160583,144.782684   C95.325394,143.002686 93.504204,140.825241 97.620995,136.320175   C98.752388,135.082077 98.892967,132.919556 98.444191,131.032440   C98.099693,129.583817 97.979912,127.840874 96.367104,127.314568   C94.730980,126.780647 93.588600,128.126999 92.537277,129.164948   C88.139832,133.506439 88.175262,133.507553 84.808762,128.482224   C84.098839,127.422485 83.408287,125.759628 81.894249,126.219658   C80.143585,126.751595 80.393944,128.665054 80.532776,130.071152   C80.710571,131.871811 81.187462,133.659500 81.694534,135.406616   C82.248116,137.314011 81.800163,138.855179 79.959953,139.492523   C78.193550,140.104309 77.257599,138.768967 76.668854,137.284271   C75.295395,133.820709 74.501190,130.247284 75.368179,126.545998   C76.805573,120.409576 82.099525,118.752846 87.086403,122.788704   C88.118156,123.623711 88.740875,125.416718 90.670273,123.813911   C93.530357,121.437958 96.790970,121.043030 99.871201,123.320633   C103.438065,125.958046 104.905411,130.003433 103.723633,133.972443   C102.472588,138.174103 103.359734,140.410339 106.819107,142.933563   C110.640152,145.720581 110.922791,150.377533 108.389351,153.544022   C105.963081,156.576599 98.865082,158.452377 96.028542,156.641708   C93.728233,155.173355 93.836143,153.511703 96.569748,151.973434  z"/>
<path fill="#FD7318" opacity="1.000000" stroke="none" d=" M199.465012,118.590622   C201.422897,113.673096 203.638214,109.546753 208.664291,107.658882   C212.326782,106.283180 215.388901,106.747490 218.165024,109.587517   C224.075653,115.634216 223.255539,124.300148 216.272446,128.826477   C208.031937,134.167816 205.084671,134.218674 200.588654,129.399368   C197.564148,126.157402 197.295975,122.720215 199.465012,118.590622  z"/>
<path fill="#181818" opacity="1.000000" stroke="none" d=" M312.912811,100.532516   C302.022400,100.532341 298.865723,96.221611 301.833313,86.093430   C302.485138,83.868729 303.913513,82.829552 306.179840,82.830544   C310.151276,82.832291 314.123749,82.785210 318.093384,82.870750   C319.033142,82.890999 320.303711,83.055206 320.842712,83.665184   C324.365601,87.651688 322.864960,92.474869 322.444275,96.923477   C322.097443,100.591209 318.756409,100.573753 315.851990,100.533760   C315.024719,100.522362 314.197174,100.532372 312.912811,100.532516  z"/>
<path fill="#FD741B" opacity="1.000000" stroke="none" d=" M126.115784,101.142944   C120.906693,97.599792 123.507256,92.994598 124.031464,88.824066   C124.479233,85.261620 127.364616,84.351929 130.536484,83.749870   C133.747421,83.140411 136.931198,83.433777 139.925583,84.133575   C144.167160,85.124847 145.890259,88.563110 146.115036,92.759430   C146.341965,96.996117 144.370056,99.756897 140.351990,100.972359   C135.784653,102.353981 131.159485,102.072563 126.115784,101.142944  z"/>
<path fill="#FD751C" opacity="1.000000" stroke="none" d=" M131.680817,130.561829   C135.246323,131.537567 138.413467,132.480026 141.610748,133.305771   C145.895432,134.412399 146.308823,136.917633 145.006485,140.786072   C142.085846,149.461273 136.737976,152.680740 127.828110,150.585709   C126.220436,150.207687 124.656235,149.642273 123.076065,149.150208   C115.556892,146.808746 114.789497,144.016907 120.041260,137.911560   C123.081299,134.377411 125.272270,129.512344 131.680817,130.561829  z"/>
<path fill="#FD7821" opacity="1.000000" stroke="none" d=" M119.316849,105.999954   C125.177666,106.325287 129.107330,109.433937 130.462891,114.573227   C131.723663,119.353142 130.147980,122.923515 125.933838,125.574196   C120.421928,129.041183 116.998749,129.110748 112.290016,125.452103   C105.893806,120.482315 105.635048,117.023964 111.157036,111.160080   C113.349144,108.832237 115.694786,106.783745 119.316849,105.999954  z"/>
<path fill="#FD761E" opacity="1.000000" stroke="none" d=" M153.056625,122.140533   C144.687759,121.320381 141.176636,118.702309 141.754425,114.024078   C142.564865,107.461891 149.361450,102.362190 156.183411,103.197502   C161.343857,103.829384 165.539429,108.265205 165.616119,113.170387   C165.685699,117.620316 162.011185,121.187042 156.474625,121.989525   C155.493393,122.131744 154.487534,122.104118 153.056625,122.140533  z"/>
<path fill="#FD751C" opacity="1.000000" stroke="none" d=" M221.635376,153.853027   C220.323456,154.287186 219.390167,154.712845 218.418015,154.839203   C216.801804,155.049240 214.902267,155.540192 213.931213,153.716064   C213.010162,151.985870 214.269424,150.547501 215.219955,149.213821   C219.268356,143.533539 224.673538,139.485001 230.862381,136.422119   C232.203918,135.758194 233.726807,135.111145 235.039032,136.342957   C236.289688,137.516968 236.015579,139.096680 235.546600,140.554810   C233.365891,147.334885 227.720352,150.567184 221.635376,153.853027  z"/>
<path fill="#FD7922" opacity="1.000000" stroke="none" d=" M172.697784,111.495453   C171.854584,110.269348 171.750961,109.152039 172.469009,108.410469   C176.312012,104.441628 180.050919,100.468803 181.055740,94.693642   C181.222183,93.737030 182.457275,93.221878 183.489624,93.284355   C184.546555,93.348320 185.302032,94.095886 185.708679,95.073944   C187.868896,100.269470 178.864975,112.059853 172.697784,111.495453  z"/>
<path fill="#FD741B" opacity="1.000000" stroke="none" d=" M171.734375,154.995514   C168.792343,155.226074 167.601517,154.114243 168.404251,151.526138   C169.639450,147.543564 178.046646,145.080994 181.145554,147.725723   C181.991837,148.447983 182.317474,149.335159 182.058960,150.344772   C181.649948,151.942108 180.279419,152.313553 178.948700,152.096176   C176.052032,151.622971 173.804794,152.467148 171.734375,154.995514  z"/>
<path fill="#FD7923" opacity="1.000000" stroke="none" d=" M89.830971,147.388977   C88.214867,145.961823 87.160294,144.335464 84.865219,145.413849   C83.092865,146.246628 81.974167,145.034729 81.534569,143.467758   C81.105278,141.937546 82.222702,141.056381 83.424088,140.339462   C86.851593,138.294083 93.412903,141.085373 93.870171,144.969772   C94.188652,147.675247 92.675560,148.576782 89.830971,147.388977  z"/>


<path fill="#FFF8F4" opacity="1.000000" stroke="none" d=" M126.615540,144.626190   C123.590363,143.978455 122.681366,143.408386 124.730736,140.500351   C127.480240,136.598846 130.326447,134.747086 134.919510,136.803574   C136.665833,137.585464 139.887131,136.800934 139.588303,139.858810   C139.308517,142.721878 137.543182,145.001617 134.286987,145.630096   C131.722397,146.125076 129.403366,145.112274 126.615540,144.626190  z"/>
<path fill="#FFFBF9" opacity="1.000000" stroke="none" d=" M114.943581,115.025406   C117.155533,113.377930 118.668968,110.783119 121.479614,111.560303   C123.377312,112.085045 124.799263,113.683167 125.186798,115.829475   C125.561035,117.902107 125.397072,119.834984 123.265862,120.942619   C121.312218,121.957985 119.397377,124.171608 117.039207,122.243446   C114.934486,120.522522 110.556259,119.220421 114.943581,115.025406  z"/>
<path fill="#FFFAF7" opacity="1.000000" stroke="none" d=" M153.996429,116.989502   C151.224136,116.638657 147.706085,116.973686 147.437485,114.276100   C147.154770,111.436653 149.586472,109.306358 152.930878,108.931702   C156.104279,108.576202 159.343277,108.327126 159.972672,112.362831   C160.609039,116.443192 157.241684,116.602234 153.996429,116.989502  z"/>
</svg>